<svg xmlns="http://www.w3.org/2000/svg" viewBox="0 0 500 500"><g id="freepik--Floor--inject-72"><path d="M479.39,470.2c0,.15-102.71.26-229.38.26s-229.4-.11-229.4-.26,102.69-.26,229.4-.26S479.39,470.06,479.39,470.2Z" style="fill:#263238"></path></g><g id="freepik--Plant--inject-72"><rect x="50.47" y="409.51" width="71.89" height="9.88" style="fill:#263238"></rect><path d="M122.49,419.51H50.35V409.39h72.14Zm-71.89-.24h71.64v-9.63H50.6Z" style="fill:#263238"></path><polygon points="57.14 416.1 67.49 467.15 105.78 467.15 115.78 419.39 57.14 416.1" style="fill:#263238"></polygon><polygon points="57.14 462.33 62.66 469.92 109.2 469.92 115.78 462.33 57.14 462.33" style="fill:#455a64"></polygon><path d="M83.72,417.59c-.14,0-.32-23.65-.41-52.81s0-52.83.11-52.83.32,23.65.41,52.82S83.86,417.59,83.72,417.59Z" style="fill:#263238"></path><path d="M99.73,358.41a2.17,2.17,0,0,1-.19.55l-.64,1.53c-.14.34-.3.7-.47,1.1L98,362.93c-.17.49-.36,1-.55,1.54s-.35,1.15-.54,1.76a74.35,74.35,0,0,0-2,8.8,108.91,108.91,0,0,0-1.11,11,149.1,149.1,0,0,0,.57,20.11c.23,2.56.46,4.64.63,6.07.08.67.14,1.22.19,1.65a2.32,2.32,0,0,1,0,.58,3,3,0,0,1-.13-.56l-.27-1.64c-.24-1.43-.52-3.5-.8-6.07A132.09,132.09,0,0,1,93.23,386,101.29,101.29,0,0,1,94.39,375a66,66,0,0,1,2.13-8.83c.2-.61.36-1.21.57-1.75s.41-1.05.59-1.54.36-.92.52-1.33.36-.76.52-1.09c.29-.61.54-1.1.73-1.5A2.62,2.62,0,0,1,99.73,358.41Z" style="fill:#263238"></path><path d="M97.9,339.28a7,7,0,0,1-.23.78c-.19.55-.44,1.28-.75,2.2l-.55,1.58c-.18.59-.37,1.23-.58,1.91-.42,1.37-.91,2.93-1.34,4.68l-.72,2.73c-.22,1-.44,2-.68,3-.5,2.06-.86,4.3-1.32,6.63-.8,4.7-1.49,9.89-2,15.37s-.65,10.72-.72,15.49,0,9.06.24,12.66c.07,1.8.18,3.42.28,4.85s.17,2.66.26,3.67.13,1.74.18,2.32a4.51,4.51,0,0,1,0,.81,6.94,6.94,0,0,1-.13-.8q-.09-.87-.27-2.31c-.12-1-.24-2.23-.35-3.66s-.26-3.06-.35-4.87c-.24-3.6-.34-7.9-.35-12.68s.23-10,.68-15.52,1.2-10.7,2-15.41c.48-2.34.86-4.58,1.38-6.64.24-1,.48-2,.7-3s.52-1.87.76-2.74c.46-1.75,1-3.3,1.42-4.66l.62-1.9c.21-.58.41-1.1.59-1.58l.84-2.17A4.25,4.25,0,0,1,97.9,339.28Z" style="fill:#263238"></path><path d="M79.17,421.78a1.18,1.18,0,0,1,0-.28c0-.21,0-.48-.07-.81,0-.76-.12-1.8-.21-3.13-.17-2.76-.42-6.69-.72-11.52-.62-9.73-1.53-23.16-3.16-37.94-.84-7.39-1.81-14.4-2.82-20.76-.53-3.18-1-6.2-1.57-9s-1-5.43-1.55-7.82-1-4.53-1.42-6.41-.82-3.51-1.16-4.83l-.75-3c-.07-.32-.13-.59-.18-.79a.85.85,0,0,1,0-.28,2.32,2.32,0,0,1,.09.26l.23.78c.2.73.49,1.74.84,3s.8,2.92,1.24,4.81,1,4,1.5,6.41,1.09,5,1.62,7.81,1.07,5.83,1.62,9c1,6.36,2,13.39,2.86,20.78,1.63,14.79,2.48,28.24,3,38,.27,4.87.45,8.81.56,11.54,0,1.33.09,2.38.12,3.13,0,.34,0,.61,0,.82A1.23,1.23,0,0,1,79.17,421.78Z" style="fill:#263238"></path><path d="M83.13,323.32c-.31-3.35-3.7-5.88-7.06-5.91s-6.5,2-8.56,4.64a26.87,26.87,0,0,0-4.12,9.15c-2.27,7.89-3.51,16.19-2.54,24.34S65.13,371.73,71,377.49c1,.94,2.19,1.87,3.49,1.59A4.12,4.12,0,0,0,76.31,378,54.46,54.46,0,0,0,94,336.52c-.09-3.1-.5-6.33-2.21-8.91s-5.72-5.33-8.65-4.29" style="fill:#339966"></path><path d="M58,296.48l-4.74,8.59c-.11.2-.26.42-.49.44s-.43-.21-.57-.42L39.68,285.86l2.89-1.64Z" style="fill:#339966"></path><g style="opacity:0.2"><path d="M58,296.48l-4.74,8.59c-.11.2-.26.42-.49.44s-.43-.21-.57-.42L39.68,285.86l2.89-1.64Z"></path></g><path d="M83.42,312,40.68,286.73a2,2,0,0,1-1-1.05c-.17-.63.3-1.24.76-1.71a29.47,29.47,0,0,1,22.84-9,26.08,26.08,0,0,1,20.65,12.85C88,295.21,88.15,305,83.42,312" style="fill:#339966"></path><path d="M46.84,278.68a2.26,2.26,0,0,1,.56-.07c.37,0,.91-.09,1.61-.08A32.9,32.9,0,0,1,55,279a34.66,34.66,0,0,1,27.66,25,32.45,32.45,0,0,1,1.06,5.86,15.8,15.8,0,0,1,.08,1.61,2.28,2.28,0,0,1,0,.57s-.1-.77-.27-2.16a35.09,35.09,0,0,0-28.59-30.55,36.18,36.18,0,0,0-5.87-.63C47.62,278.7,46.84,278.72,46.84,278.68Z" style="fill:#263238"></path><path d="M77.64,294.54a9.85,9.85,0,0,1-2.16,1c-1.37.54-3.27,1.23-5.4,1.9S66,298.64,64.58,299a10.12,10.12,0,0,1-2.33.45,11.23,11.23,0,0,1,2.23-.79l5.45-1.71,5.42-1.75A11.1,11.1,0,0,1,77.64,294.54Z" style="fill:#263238"></path><path d="M70.91,276.46a18.43,18.43,0,0,1,.5,4.77,18.12,18.12,0,0,1-.26,4.79,29.27,29.27,0,0,1-.25-4.78A28.13,28.13,0,0,1,70.91,276.46Z" style="fill:#263238"></path><path d="M40.31,286.25a20.14,20.14,0,0,1,3.1-1.09c1.94-.6,4.65-1.36,7.66-2.09s5.77-1.28,7.77-1.63A18.94,18.94,0,0,1,62.1,281a24,24,0,0,1-3.19.8c-2,.44-4.71,1.05-7.72,1.77s-5.72,1.43-7.68,1.94A24,24,0,0,1,40.31,286.25Z" style="fill:#263238"></path><path d="M63.71,315.39c-3.67-2.79-7.56-3.34-12.17-3.15a37.1,37.1,0,0,0-13.32,3.43c-7.21,3.16-14,7.81-18.29,14.4s-5.81,15.3-2.58,22.48a3.22,3.22,0,0,0,1.46,1.77,3.54,3.54,0,0,0,2.41-.18c8.2-2.68,16.45-5.38,24-9.57s14.4-10,18.44-17.62a15,15,0,0,0,1.94-5.85,7.26,7.26,0,0,0-1.88-5.71" style="fill:#339966"></path><path d="M63.79,314.52a2.92,2.92,0,0,1-.59.24l-1.72.6-1.24.41c-.46.16-.94.36-1.46.57-1,.42-2.24.83-3.51,1.45l-2,.92c-.69.32-1.39.71-2.13,1.09-1.48.73-3,1.66-4.59,2.61a78.24,78.24,0,0,0-9.7,7.19,79.6,79.6,0,0,0-8.38,8.72c-1.14,1.46-2.26,2.84-3.17,4.22-.47.68-.95,1.32-1.36,2l-1.16,1.88c-.77,1.18-1.34,2.32-1.89,3.29-.27.49-.53.94-.75,1.37s-.39.82-.57,1.18l-.8,1.63a3.36,3.36,0,0,1-.31.55,2.78,2.78,0,0,1,.22-.59l.71-1.67c.17-.37.34-.77.54-1.21s.45-.89.71-1.39c.52-1,1.07-2.15,1.83-3.35.36-.61.74-1.24,1.14-1.9s.88-1.31,1.34-2c.9-1.4,2-2.8,3.15-4.28a76.9,76.9,0,0,1,8.41-8.8A76.61,76.61,0,0,1,46.3,322c1.61-.94,3.13-1.86,4.64-2.58.74-.37,1.45-.76,2.15-1.07l2-.89c1.28-.6,2.5-1,3.55-1.39.53-.19,1-.38,1.48-.53l1.26-.37,1.75-.5A4.2,4.2,0,0,1,63.79,314.52Z" style="fill:#263238"></path><path d="M35.07,330.08A90.28,90.28,0,0,1,26.13,333,89.87,89.87,0,0,1,17,335.35,84.73,84.73,0,0,1,26,332.46,85.11,85.11,0,0,1,35.07,330.08Z" style="fill:#263238"></path><path d="M34.7,349.81a14.43,14.43,0,0,1-.2-2.79c0-1.72,0-4.1,0-6.73s.22-5,.36-6.72a13.88,13.88,0,0,1,.35-2.77,16.21,16.21,0,0,1,0,2.79c-.06,1.88-.13,4.18-.21,6.71s-.12,4.83-.17,6.72A16,16,0,0,1,34.7,349.81Z" style="fill:#263238"></path><path d="M51.6,341.2c-.14,0-.59-4.83-1-10.81s-.64-10.83-.49-10.84.59,4.83,1,10.81S51.74,341.19,51.6,341.2Z" style="fill:#263238"></path><path d="M30.56,319.08a16.1,16.1,0,0,1,2.87-.09c1.77,0,4.21.07,6.9.16s5.13.19,6.89.3a15.91,15.91,0,0,1,2.86.27,14.84,14.84,0,0,1-2.86.09c-1.77,0-4.21-.06-6.91-.15s-5.13-.2-6.9-.31A15.86,15.86,0,0,1,30.56,319.08Z" style="fill:#263238"></path><path d="M72.82,379.79a2.45,2.45,0,0,1-.07-.58c0-.44,0-1-.07-1.68-.07-1.46-.08-3.57,0-6.18s.22-5.72.53-9.16S74,355,74.69,351.06s1.55-7.63,2.43-11,1.81-6.31,2.67-8.78,1.59-4.45,2.15-5.79c.27-.63.48-1.15.65-1.55a3.68,3.68,0,0,1,.26-.53,2.39,2.39,0,0,1-.16.57c-.15.41-.33.93-.56,1.58-.51,1.36-1.2,3.36-2,5.83s-1.68,5.46-2.55,8.79-1.68,7-2.39,10.94-1.18,7.66-1.54,11.08-.54,6.52-.63,9.13-.14,4.71-.14,6.17c0,.68,0,1.24,0,1.67A3.35,3.35,0,0,1,72.82,379.79Z" style="fill:#263238"></path><path d="M75.07,350.63a11.47,11.47,0,0,1-1.71,1.87c-1.1,1.1-2.67,2.58-4.46,4.15s-3.47,2.94-4.71,3.89A12.36,12.36,0,0,1,62.12,362,12.35,12.35,0,0,1,64,360.26l4.6-4,4.56-4A12.6,12.6,0,0,1,75.07,350.63Z" style="fill:#263238"></path><path d="M88.6,361.53A20.89,20.89,0,0,1,86.78,359l-4.22-6.16-4.31-6.11a19.81,19.81,0,0,1-1.73-2.57,17.85,17.85,0,0,1,2,2.36c1.18,1.5,2.77,3.62,4.44,6s3.11,4.62,4.11,6.26A16.67,16.67,0,0,1,88.6,361.53Z" style="fill:#263238"></path><path d="M81.51,327.25c.08.12-4.42,3.15-10,6.76s-10.24,6.45-10.32,6.33,4.42-3.15,10-6.76S81.44,327.13,81.51,327.25Z" style="fill:#263238"></path><path d="M94.18,340.93a85.35,85.35,0,0,1-6.79-6.28A82.55,82.55,0,0,1,81,328a83.36,83.36,0,0,1,6.79,6.28A82.55,82.55,0,0,1,94.18,340.93Z" style="fill:#263238"></path><path d="M97.37,340.66l3.86-.32A19.08,19.08,0,0,0,109,338a30.76,30.76,0,0,1,3.63-1.82c4.77-1.92,10.09-1.57,15.23-1.83a63.09,63.09,0,0,0,24.21-6.19,2.41,2.41,0,0,0,1.06-1c.79-1.45-.68-2.73-2-3.51-6.5-4-13.11-8.06-20.48-10.05s-15.74-1.65-22,2.68c-7.38,5.08-10.07,15.51-11.32,24.39" style="fill:#339966"></path><path d="M153.24,326.67a3.39,3.39,0,0,1-.66-.3l-1.83-1c-1.58-.83-3.86-2.06-6.75-3.45a63.4,63.4,0,0,0-10.45-4A34.61,34.61,0,0,0,120,316.84a23.16,23.16,0,0,0-12.36,5.3,27.49,27.49,0,0,0-6.43,9c-1.35,2.9-2.19,5.36-2.8,7-.28.81-.51,1.45-.68,1.94a4,4,0,0,1-.27.67,3.49,3.49,0,0,1,.17-.7c.15-.5.35-1.15.59-2a65,65,0,0,1,2.66-7.13,27.29,27.29,0,0,1,6.45-9.23,23.35,23.35,0,0,1,12.6-5.46,34.53,34.53,0,0,1,13.74,1.15,60.1,60.1,0,0,1,10.49,4.16c2.87,1.43,5.13,2.71,6.69,3.6l1.78,1A4.07,4.07,0,0,1,153.24,326.67Z" style="fill:#263238"></path><path d="M144,331.65c-.08.12-5.12-3.15-11.27-7.29s-11.06-7.6-11-7.71,5.12,3.14,11.27,7.29S144.05,331.53,144,331.65Z" style="fill:#263238"></path><path d="M139.13,316.16a11.89,11.89,0,0,1-3.94.79,12.25,12.25,0,0,1-4-.05,23.07,23.07,0,0,1,4-.46A25,25,0,0,1,139.13,316.16Z" style="fill:#263238"></path><path d="M116.5,312.11a13.84,13.84,0,0,1-1.65,3.31,13.64,13.64,0,0,1-2.1,3.05,13.67,13.67,0,0,1,1.66-3.31A13.43,13.43,0,0,1,116.5,312.11Z" style="fill:#263238"></path><path d="M121,334.62a13.45,13.45,0,0,1-2.43-1.31c-1.45-.89-3.42-2.18-5.53-3.71s-4-3-5.29-4a15.26,15.26,0,0,1-2.1-1.8,13.56,13.56,0,0,1,2.32,1.51l5.37,3.9c2.1,1.53,4,2.86,5.43,3.82A16.91,16.91,0,0,1,121,334.62Z" style="fill:#263238"></path><path d="M103.05,357.05c-3.68-1-8.07,2.6-8.82,6.33s.64,7.55,2.27,11a56,56,0,0,0,15.22,19.91c6.59,5.25,14.84,8.61,23.27,8.57-1.56-7.23.41-14.78-.46-22.12a28.78,28.78,0,0,0-25.47-25.22c-2.35-.25-5.07-.62-6,1.55" style="fill:#339966"></path><path d="M135,402.84a3.11,3.11,0,0,1-.53-.24,10.4,10.4,0,0,1-1.37-.93,14.29,14.29,0,0,1-3.63-4.86c-.59-1.14-1.25-2.37-1.89-3.74l-2-4.38a42.75,42.75,0,0,0-2.43-4.68,36.6,36.6,0,0,0-3.35-4.55c-2.52-3-5.22-5.52-7.56-8a51.06,51.06,0,0,1-5.77-6.92,25.25,25.25,0,0,1-2.82-5.38,14.6,14.6,0,0,1-.49-1.58,2,2,0,0,1-.12-.56s.26.75.79,2.07a27.83,27.83,0,0,0,2.94,5.25,54.76,54.76,0,0,0,5.8,6.8c2.36,2.42,5.08,5,7.62,8a37.14,37.14,0,0,1,3.39,4.62A41.09,41.09,0,0,1,126,388.5l1.94,4.39c.61,1.36,1.25,2.61,1.82,3.76a14.89,14.89,0,0,0,3.44,4.87C134.29,402.45,135,402.79,135,402.84Z" style="fill:#263238"></path><path d="M116,396.83a10.76,10.76,0,0,1,.34-2.47c.29-1.52.76-3.6,1.4-5.86s1.32-4.29,1.86-5.74a10.45,10.45,0,0,1,1-2.28,13.91,13.91,0,0,1-.66,2.4c-.46,1.47-1.08,3.5-1.72,5.75s-1.16,4.32-1.54,5.81A13.42,13.42,0,0,1,116,396.83Z" style="fill:#263238"></path><path d="M134.29,379.1a14.86,14.86,0,0,1-2.59-.6c-1.59-.41-3.78-1-6.21-1.53s-4.66-1-6.27-1.28a15.27,15.27,0,0,1-2.6-.57,12.38,12.38,0,0,1,2.66.21c1.63.22,3.87.59,6.32,1.14s4.64,1.18,6.2,1.68A12.32,12.32,0,0,1,134.29,379.1Z" style="fill:#263238"></path><path d="M102.3,384.25a16.37,16.37,0,0,1,.4-2.87c.33-1.75.84-4.17,1.53-6.81s1.42-5,2-6.68a15.3,15.3,0,0,1,1-2.7,17.22,17.22,0,0,1-.71,2.8c-.48,1.72-1.16,4.09-1.84,6.71s-1.26,5-1.67,6.76A16.68,16.68,0,0,1,102.3,384.25Z" style="fill:#263238"></path><path d="M125.85,363.64c0,.14-4.61-.23-10.26-.83s-10.22-1.2-10.21-1.34,4.61.23,10.26.83S125.86,363.5,125.85,363.64Z" style="fill:#263238"></path><path d="M122.48,419.35c0,.14-16.14.26-36.06.26s-36.07-.12-36.07-.26,16.15-.26,36.07-.26S122.48,419.21,122.48,419.35Z" style="fill:#455a64"></path><path d="M111.25,440.13c0,.14-10.88.26-24.3.26s-24.3-.12-24.3-.26,10.88-.26,24.3-.26S111.25,440,111.25,440.13Z" style="fill:#455a64"></path><path d="M111.67,443.1c0,.14-10.88.26-24.3.26s-24.3-.12-24.3-.26,10.88-.25,24.3-.25S111.67,443,111.67,443.1Z" style="fill:#455a64"></path><path d="M111.67,437.68c0,.14-11.25.26-25.13.26s-25.14-.12-25.14-.26,11.26-.25,25.14-.25S111.67,437.54,111.67,437.68Z" style="fill:#455a64"></path></g></svg>